<svg width="200" height="95" viewBox="0 0 200 95" fill="none" xmlns="http://www.w3.org/2000/svg">
<rect x="1" y="1" width="198" height="93" rx="7" fill="url(#paint0_linear_1_62)"/>
<rect x="1" y="1" width="198" height="93" rx="7" stroke="black" stroke-width="2"/>
<mask id="path-2-inside-1_1_62" fill="white">
<path d="M12 6H154V33H12V6Z"/>
</mask>
<path d="M154 32H12V34H154V32Z" fill="black" mask="url(#path-2-inside-1_1_62)"/>
<path d="M18.048 21.896V20.456H24.048V27H22.64V23.928C22.144 25.576 20.848 27.176 18.384 27.176C15.232 27.176 12.8 24.648 12.8 20.92C12.8 17.192 15.168 14.664 18.512 14.664C21.344 14.664 23.248 16.168 23.872 18.6H22.192C21.648 17.064 20.448 16.024 18.512 16.024C16.096 16.024 14.48 18.04 14.48 20.92C14.48 23.816 16.128 25.816 18.576 25.816C20.8 25.816 22.384 24.424 22.432 21.896H18.048ZM32.9788 21.8L36.0828 27H34.1948L31.2668 22.04H31.2188H28.3548V27H26.7388V14.84H31.2188C33.9068 14.84 35.5868 16.248 35.5868 18.44C35.5868 20.104 34.6108 21.32 32.9788 21.8ZM31.2508 16.28H28.3548V20.6H31.2508C32.8988 20.6 33.9068 19.832 33.9068 18.44C33.9068 17.048 32.8988 16.28 31.2508 16.28ZM39.7298 21.448V25.56H46.1778V27H38.1138V14.84H46.0338V16.28H39.7298V20.008H45.9218V21.448H39.7298ZM50.2298 21.448V25.56H56.6778V27H48.6138V14.84H56.5338V16.28H50.2298V20.008H56.4218V21.448H50.2298ZM67.9458 26.936V14.84H69.5618V27H66.2178L60.7298 14.904V27H59.1138V14.84H62.4578L67.9458 26.936ZM84.5821 20.008V14.84H86.1981V27H84.5821V21.448H78.2141V27H76.5981V14.84H78.2141V20.008H84.5821ZM94.3108 27.176C90.8868 27.176 88.5188 24.648 88.5188 20.92C88.5188 17.192 90.8868 14.664 94.3108 14.664C97.7348 14.664 100.103 17.192 100.103 20.92C100.103 24.648 97.7348 27.176 94.3108 27.176ZM94.3108 25.816C96.7587 25.816 98.4228 23.8 98.4228 20.92C98.4228 18.04 96.7587 16.024 94.3108 16.024C91.8628 16.024 90.1988 18.04 90.1988 20.92C90.1988 23.8 91.8628 25.816 94.3108 25.816ZM106.314 27.176C103.738 27.176 101.882 25.72 101.514 23.336H103.194C103.418 24.984 104.682 25.816 106.314 25.816C108.458 25.816 109.626 24.92 109.626 23.656C109.626 22.328 108.65 22.008 106.698 21.576L105.178 21.24C103.274 20.824 101.898 19.864 101.898 18.04C101.898 16.104 103.834 14.664 106.282 14.664C108.842 14.664 110.586 16.008 110.938 18.008H109.258C108.874 16.616 107.754 16.024 106.282 16.024C104.746 16.024 103.53 16.76 103.53 17.88C103.53 19.032 104.314 19.416 106.186 19.832L107.706 20.168C110.154 20.712 111.258 21.576 111.258 23.48C111.258 25.656 109.29 27.176 106.314 27.176ZM111.96 14.84H121.672V16.28H117.624V27H116.008V16.28H111.96V14.84ZM125.089 27H123.473V14.84H125.089V27ZM136.961 26.936V14.84H138.577V27H135.233L129.745 14.904V27H128.129V14.84H131.473L136.961 26.936ZM146.142 21.896V20.456H152.142V27H150.734V23.928C150.238 25.576 148.942 27.176 146.478 27.176C143.326 27.176 140.894 24.648 140.894 20.92C140.894 17.192 143.262 14.664 146.606 14.664C149.438 14.664 151.342 16.168 151.966 18.6H150.286C149.742 17.064 148.542 16.024 146.606 16.024C144.19 16.024 142.574 18.04 142.574 20.92C142.574 23.816 144.222 25.816 146.67 25.816C148.894 25.816 150.478 24.424 150.526 21.896H146.142Z" fill="black"/>
<path d="M159.208 23.285V23.6825C159.208 30.7875 164.988 36.565 172.09 36.565C179.193 36.565 184.973 30.785 184.973 23.6825V23.285H159.208Z" fill="white"/>
<path d="M158.75 23.05V23.46C158.75 30.7875 164.71 36.7475 172.037 36.7475C179.365 36.7475 185.325 30.7875 185.325 23.46V23.05H158.75ZM171.627 30.0925V35.8775C170.1 35.5375 168.247 33.3775 167.1 30.0925H171.627ZM166.837 29.2725C166.365 27.675 166.062 25.8525 166.03 23.87H171.627V29.2725H166.837ZM172.445 35.8725V30.0925H176.915C176.625 30.895 176.285 31.6625 175.895 32.38C174.852 34.2925 173.542 35.6 172.445 35.8725ZM172.445 29.2725V23.87H178.042C178.007 25.73 177.715 27.57 177.192 29.2725H172.445ZM165.21 23.87C165.242 25.805 165.53 27.635 165.997 29.2725H161.012C160.128 27.6046 159.637 25.7568 159.575 23.87H165.212H165.21ZM161.485 30.0925H166.252C167.085 32.585 168.325 34.565 169.647 35.6975C166.217 35.03 163.287 32.9525 161.485 30.0925ZM174.37 35.7075C175.69 34.57 176.935 32.5725 177.782 30.0925H182.592C180.78 32.9675 177.825 35.05 174.372 35.7075H174.37ZM183.062 29.2725H178.04C178.525 27.62 178.825 25.785 178.862 23.87H184.497C184.437 25.757 183.945 27.605 183.06 29.2725H183.062Z" fill="black"/>
<path d="M174.778 23.05L184.903 19.3325L184.225 17.4875L174.92 20.905L181.58 11.9725L180.005 10.8L173.073 20.0975V7.5H171.108V20.2575L164.178 10.805L162.593 11.9675L169.108 20.85L159.833 17.4425L159.155 19.2875L169.4 23.05H174.778Z" fill="#00FF00"/>
{{text}}
<mask id="path-10-inside-2_1_62" fill="white">
<path d="M12 71H188V91H12V71Z"/>
</mask>
<path d="M12 72H188V70H12V72Z" fill="black" mask="url(#path-10-inside-2_1_62)"/>
<path d="M54.1238 83.81V82.91H57.8738V87H56.9938V85.08C56.6838 86.11 55.8738 87.11 54.3338 87.11C52.3638 87.11 50.8438 85.53 50.8438 83.2C50.8438 80.87 52.3238 79.29 54.4138 79.29C56.1838 79.29 57.3738 80.23 57.7638 81.75H56.7138C56.3738 80.79 55.6237 80.14 54.4138 80.14C52.9038 80.14 51.8938 81.4 51.8938 83.2C51.8938 85.01 52.9238 86.26 54.4538 86.26C55.8438 86.26 56.8338 85.39 56.8638 83.81H54.1238ZM63.4555 83.75L65.3955 87H64.2155L62.3855 83.9H62.3555H60.5655V87H59.5555V79.4H62.3555C64.0355 79.4 65.0855 80.28 65.0855 81.65C65.0855 82.69 64.4755 83.45 63.4555 83.75ZM62.3755 80.3H60.5655V83H62.3755C63.4055 83 64.0355 82.52 64.0355 81.65C64.0355 80.78 63.4055 80.3 62.3755 80.3ZM67.6748 83.53V86.1H71.7048V87H66.6648V79.4H71.6148V80.3H67.6748V82.63H71.5448V83.53H67.6748ZM74.2373 83.53V86.1H78.2673V87H73.2273V79.4H78.1773V80.3H74.2373V82.63H78.1073V83.53H74.2373ZM85.3098 86.96V79.4H86.3198V87H84.2298L80.7998 79.44V87H79.7898V79.4H81.8798L85.3098 86.96ZM97.7332 86.96L99.5932 79.4H100.663L98.7932 87H96.6932L95.1932 79.45L93.6932 87H91.5932L89.7232 79.4H90.7932L92.6532 86.96L94.1532 79.4H96.2332L97.7332 86.96ZM102.812 83.53V86.1H106.842V87H101.802V79.4H106.752V80.3H102.812V82.63H106.682V83.53H102.812ZM111.894 83.09C113.304 83.14 114.044 83.74 114.044 84.89C114.044 86.26 113.014 87 111.224 87H108.364V79.4H111.224C113.074 79.4 113.784 80.32 113.784 81.37C113.784 82.37 113.014 82.98 111.894 83.09ZM112.734 81.47C112.734 80.67 112.174 80.3 111.224 80.3H109.374V82.63H111.224C112.174 82.63 112.734 82.28 112.734 81.47ZM109.374 86.1H111.254C112.424 86.1 112.994 85.65 112.994 84.82C112.994 83.98 112.424 83.53 111.254 83.53H109.374V86.1ZM122.833 79.4V80.3H118.993V82.75H122.773V83.65H118.993V87H117.983V79.4H122.833ZM127.296 87.11C125.156 87.11 123.676 85.53 123.676 83.2C123.676 80.87 125.156 79.29 127.296 79.29C129.436 79.29 130.916 80.87 130.916 83.2C130.916 85.53 129.436 87.11 127.296 87.11ZM127.296 86.26C128.826 86.26 129.866 85 129.866 83.2C129.866 81.4 128.826 80.14 127.296 80.14C125.766 80.14 124.726 81.4 124.726 83.2C124.726 85 125.766 86.26 127.296 86.26ZM135.278 87.11C133.148 87.11 132.288 85.94 132.288 83.97V83.95V79.4H133.298V84.01V84.03C133.298 85.55 133.968 86.26 135.278 86.26C136.588 86.26 137.248 85.54 137.248 84.01V79.4H138.258V83.95C138.258 85.93 137.408 87.11 135.278 87.11ZM145.603 86.96V79.4H146.613V87H144.523L141.093 79.44V87H140.083V79.4H142.173L145.603 86.96ZM148.511 79.4H151.101C153.371 79.4 154.871 80.73 154.871 83.2C154.871 85.67 153.371 87 151.101 87H148.511V79.4ZM149.521 86.1H151.131C152.831 86.1 153.821 85.07 153.821 83.2C153.821 81.34 152.831 80.3 151.131 80.3H149.521V86.1ZM162.826 87H161.746L160.926 84.7H157.196L156.376 87H155.296L158.026 79.4H160.096L162.826 87ZM159.066 79.44L157.516 83.8H160.606L159.066 79.44ZM162.174 79.4H168.244V80.3H165.714V87H164.704V80.3H162.174V79.4ZM170.38 87H169.37V79.4H170.38V87ZM175.45 87.11C173.31 87.11 171.83 85.53 171.83 83.2C171.83 80.87 173.31 79.29 175.45 79.29C177.59 79.29 179.07 80.87 179.07 83.2C179.07 85.53 177.59 87.11 175.45 87.11ZM175.45 86.26C176.98 86.26 178.02 85 178.02 83.2C178.02 81.4 176.98 80.14 175.45 80.14C173.92 80.14 172.88 81.4 172.88 83.2C172.88 85 173.92 86.26 175.45 86.26ZM186.042 86.96V79.4H187.052V87H184.962L181.532 79.44V87H180.522V79.4H182.612L186.042 86.96Z" fill="black"/>
<defs>
<linearGradient id="paint0_linear_1_62" x1="3.5" y1="90.5" x2="74" y2="29" gradientUnits="userSpaceOnUse">
<stop stop-color="#06FF06"/>
<stop offset="0.458673" stop-color="#DFFCDD"/>
<stop offset="0.620613" stop-color="white"/>
</linearGradient>
</defs>
</svg>

